<svg width="34" height="34" viewBox="0 0 34 34" fill="none" xmlns="http://www.w3.org/2000/svg">
<g id="Group">
<path id="Vector" fill-rule="evenodd" clip-rule="evenodd" d="M23.181 12.3644C23.181 14.004 22.5297 15.5763 21.3704 16.7356C20.2111 17.895 18.6387 18.5463 16.9992 18.5463C15.3597 18.5463 13.7873 17.895 12.628 16.7356C11.4687 15.5763 10.8174 14.004 10.8174 12.3644C10.8174 10.7249 11.4687 9.15255 12.628 7.99323C13.7873 6.83391 15.3597 6.18262 16.9992 6.18262C18.6387 6.18262 20.2111 6.83391 21.3704 7.99323C22.5297 9.15255 23.181 10.7249 23.181 12.3644ZM20.0901 12.3644C20.0901 13.1842 19.7645 13.9704 19.1848 14.55C18.6051 15.1297 17.819 15.4553 16.9992 15.4553C16.1794 15.4553 15.3933 15.1297 14.8136 14.55C14.2339 13.9704 13.9083 13.1842 13.9083 12.3644C13.9083 11.5447 14.2339 10.7585 14.8136 10.1788C15.3933 9.59917 16.1794 9.27353 16.9992 9.27353C17.819 9.27353 18.6051 9.59917 19.1848 10.1788C19.7645 10.7585 20.0901 11.5447 20.0901 12.3644Z" fill="#C1C1CB"/>
<g id="Group 34494">
<path id="Vector_2" fill-rule="evenodd" clip-rule="evenodd" d="M17 0C7.61136 0 0 7.61136 0 17C0 26.3886 7.61136 34 17 34C26.3886 34 34 26.3886 34 17C34 7.61136 26.3886 0 17 0ZM3.09091 17C3.09091 20.23 4.19282 23.2035 6.03964 25.5649C7.33663 23.8617 9.00984 22.4813 10.9286 21.5318C12.8473 20.5822 14.9596 20.0891 17.1005 20.0909C19.2136 20.0889 21.2993 20.5693 23.1987 21.4954C25.0981 22.4215 26.761 23.769 28.0608 25.4351C29.3999 23.6788 30.3015 21.629 30.691 19.4551C31.0806 17.2812 30.9468 15.0458 30.3009 12.9339C29.655 10.8219 28.5155 8.89416 26.9767 7.31006C25.4378 5.72595 23.5438 4.53106 21.4515 3.82424C19.3592 3.11743 17.1286 2.91901 14.9443 3.24541C12.7601 3.57181 10.6849 4.41365 8.89064 5.70126C7.09634 6.98888 5.63444 8.68525 4.6259 10.65C3.61736 12.6148 3.09119 14.7915 3.09091 17ZM17 30.9091C13.807 30.9139 10.7104 29.8154 8.23418 27.7996C9.23089 26.3728 10.5575 25.2078 12.1012 24.4038C13.6449 23.5998 15.3599 23.1806 17.1005 23.1818C18.8192 23.1804 20.5136 23.5892 22.0427 24.374C23.5718 25.1589 24.8917 26.2972 25.8925 27.6945C23.3971 29.7758 20.2494 30.9136 17 30.9091Z" fill="#C1C1CB"/>
</g>
</g>
</svg>
